<?xml version="1.0" encoding="UTF-8" standalone="no"?>
<!-- Created with Inkscape (http://www.inkscape.org/) -->

<svg
   width="179.1442mm"
   height="156.25607mm"
   viewBox="0 0 179.1442 156.25607"
   version="1.1"
   id="svg5"
   xmlns="http://www.w3.org/2000/svg"
   xmlns:svg="http://www.w3.org/2000/svg">
  <defs
     id="defs2" />
  <g
     id="layer2"
     transform="translate(104.89566,-102.45304)"
     style="opacity:1">
    <path
       id="path12423"
       style="fill:#000000;fill-opacity:1;fill-rule:evenodd;stroke:#000000;stroke-width:0.264583px;stroke-linecap:butt;stroke-linejoin:miter;stroke-opacity:1"
       d="m -19.536447,154.88963 c 0,0 0.987399,0.1176 1.44539,0.29714 0.793792,0.31118 1.367282,1.09524 2.188495,1.32447 0.453787,0.12667 0.949667,-0.0834 1.413352,0 0.733271,0.13194 2.094963,0.77928 2.094963,0.77928 0,0 2.082768,0.53816 3.1098882,0.85628 1.0002732,0.3098 2.0497191,0.52432 2.9698447,1.02422 0.2720208,0.14779 0.4419124,0.46275 0.731737,0.57154 0.4553928,0.171 0.9997201,-0.085 1.4572747,0.0801 0.4845446,0.17483 0.7981659,0.65802 1.2417848,0.91984 0.7195291,0.42466 1.537798,0.6576 2.27944887,1.04232 0.59053147,0.30633 1.05217117,0.80774 1.72392443,1.00614 0.4228677,0.12488 1.3218848,0.14986 1.3218848,0.14986 l 3.8478248,0.0331 c 0.2951533,0.003 -0.1798902,0.80742 0.1064551,0.87902 0.3656515,0.0914 0.3110177,-0.75674 0.6475042,-0.92656 0.4607136,-0.23252 1.0512292,-0.10101 1.5477093,0.0398 0.4939453,0.14008 1.3317034,0.77463 1.3317034,0.77463 0,0 -0.2549101,-1.05298 -0.2237607,-1.58595 0.018097,-0.30974 0.2361617,-0.9002 0.2361617,-0.9002 l 1.9879917,0.23978 c 0,0 -0.424963,1.54168 -0.510561,2.33319 -0.03455,0.31943 -0.06637,0.64991 0,0.96428 0.05307,0.25136 0.11892,0.53496 0.311608,0.70487 0.238559,0.21037 0.605374,0.34966 0.914156,0.27336 0.261806,-0.0647 0.577742,-0.56637 0.577742,-0.56637 l 1.241269,3.64319 c 0,0 -0.318405,0.54884 -0.342615,0.85473 -0.01982,0.2502 0.0451,0.51407 0.166397,0.7338 0.120563,0.21839 0.529685,0.52917 0.529685,0.52917 0,0 -0.690986,0.33131 -0.746725,0.65836 -0.0398,0.23353 0.149677,0.48891 0.347265,0.6196 0.151167,0.1 0.540536,0.0594 0.540536,0.0594 l 1.050065,2.98122 -15.05903002,13.9578 -10.16010308,1.14464 c 0,0 1.3673825,-2.32139 2.0572386,-3.47834 0.5947092,-0.99738 1.3152649,-1.92825 1.7947243,-2.98587 0.4455398,-0.9828 0.7320121,-2.03463 0.9875361,-3.08301 0.2908432,-1.19331 0.6835881,-2.40593 0.6165003,-3.63234 -0.072734,-1.32963 -0.3633073,-2.7289 -1.0939912,-3.84214 -0.6108197,-0.93062 -1.6050127,-1.58459 -2.5827884,-2.11667 -2.3481638,-1.27781 -5.0896866,-1.63815 -7.6372586,-2.44843 -2.428528,-0.77241 -7.290512,-2.30063 -7.290512,-2.30063 0,0 0.33305,-0.27851 0.433565,-0.46509 0.189884,-0.35246 0.265221,-0.7674 0.28267,-1.16737 0.02056,-0.47095 -0.05837,-0.95231 -0.212389,-1.39785 -0.167732,-0.48521 -0.686575,-0.83211 -0.758094,-1.34049 -0.06209,-0.44139 0.31161,-1.30069 0.31161,-1.30069 0,0 0.671081,-0.1823 0.90692,-0.41703 0.306139,-0.3047 0.383911,-0.77456 0.546738,-1.17461 0.263223,-0.64674 0.48873,-1.30907 0.693497,-1.97662 0.239503,-0.78079 0.624768,-2.36885 0.624768,-2.36885 z m 39.703002,4.62763 c 0,0 1.159221,0.0105 1.652095,0.0341 0.520546,0.0249 1.040762,0.17122 1.514636,0.38809 0.299567,0.13709 0.811321,0.56431 0.811321,0.56431 0,0 -0.823484,5.3e-4 -1.229381,0.0579 -0.368641,0.0522 -1.06557,0.24804 -1.06557,0.24804 0,0 -0.347985,-0.25775 -0.553971,-0.293 -0.205092,-0.0351 -0.617532,0.092 -0.617532,0.092 l -0.512114,-0.50539 z m 5.945891,1.51877 c 2.505683,0.0261 4.095477,1.42564 5.526794,2.83031 1.739431,1.70706 2.874134,4.18416 3.309876,6.58203 0.59717,3.28622 -1.219565,9.94565 -1.219565,9.94565 0,0 -0.01241,-1.67199 -0.226343,-2.44223 -0.138075,-0.49712 -0.280612,-1.11103 -0.703831,-1.40611 -0.305986,-0.21335 -0.631458,-0.1162 -0.953432,-0.047 -0.985655,0.21089 -2.140436,1.80196 -2.140436,1.80196 l -1.205611,-0.43925 -1.25729,1.27795 -0.102319,1.83659 c 0,0 -0.921473,0.70342 -1.390611,1.41644 -0.776888,1.18077 -1.011367,1.04469 -1.732195,3.87057 l -0.34313,-0.894 c 0,0 0.417491,-0.52896 0.374136,-0.82889 -0.05638,-0.39 -0.77153,-0.89556 -0.77153,-0.89556 l -1.12396,-3.6623 c 0,0 3.757771,-4.4832 4.81159,-7.15822 0.787091,-1.99796 1.257933,-4.22735 1.018543,-6.36137 -0.434025,-3.86909 -2.116148,-5.42499 -2.116151,-5.42499 0.08276,-0.002 0.164637,-0.002 0.245465,-0.002 z m -1.274342,0.14262 c 0.952656,0.52052 1.72716,2.30762 2.107882,3.66438 0.31141,1.10976 0.405776,3.05723 0.261483,4.20078 -0.250754,1.98729 -0.956646,3.22682 -1.813325,5.03741 -0.768186,1.62356 -3.451987,4.99557 -3.451987,4.99557 l -2.923336,-8.3566 c 0,0 0.303604,-0.2575 0.349851,-0.43873 0.05278,-0.20684 0.01275,-0.45674 -0.110588,-0.63097 -0.102492,-0.14479 -0.290997,-0.22147 -0.464055,-0.26045 -0.214818,-0.0484 -0.658874,0.0455 -0.658874,0.0455 0,0 0.118351,-0.55307 0.03204,-0.80873 -0.104791,-0.31039 -0.626319,-0.75758 -0.626317,-0.75758 l -1.680519,-4.11603 0.07855,-1.60455 c 0,0 0.473837,0.56156 0.8015,0.69401 0.211889,0.0857 0.460758,0.0833 0.684715,0.0377 0.280061,-0.057 0.557601,-0.18592 0.769461,-0.37776 0.284012,-0.25717 0.606163,-0.97668 0.606163,-0.97668 l 1.685169,1.73994 c 0,0 -0.112776,1.01287 0.101287,1.44591 l 1.341004,2.71301 c 0.137242,0.27764 0.508865,0.44257 0.818555,0.43925 0.258241,-0.003 0.674893,-0.38085 0.674893,-0.38085 0,0 0.192842,-0.45908 0.05478,-0.73174 -0.08083,-0.15963 -0.567925,-0.34727 -0.567925,-0.34727 l -1.038696,-2.0655 c 0,0 0.417988,-0.54748 0.52865,-0.8015 0.114967,-0.26391 0.255106,-0.53105 0.277503,-0.81804 0.0333,-0.42675 -0.21859,-1.26556 -0.21859,-1.26556 0,0 0.754194,-0.12446 1.158584,-0.19688 0.355864,-0.0637 1.222147,-0.078 1.222147,-0.078 z m 5.643584,21.13463 c 0.146444,0.002 0.293153,0.0274 0.427365,0.0744 0.355666,0.12451 0.886767,0.70074 0.886767,0.70074 l -3.491259,5.22138 -2.173512,0.01 c 0,0 0.08514,-2.09716 1.361675,-3.68505 0.712409,-0.88617 1.498198,-1.85265 2.563151,-2.25102 0.133183,-0.0498 0.279368,-0.072 0.425813,-0.0703 z m -101.387092,3.8716 -0.298172,3.0024 c 0,0 -0.841534,0.006 -1.257805,0.061 -0.419463,0.055 -1.24075,0.26717 -1.24075,0.26717 l 1.481563,-3.2086 z m 36.454106,0.0176 2.311485,3.49436 -1.512567,-0.10542 c 0,0 -0.54592,-1.0451 -0.68058,-1.61282 -0.136948,-0.57737 -0.118338,-1.77612 -0.118338,-1.77612 z m -44.053124,0.37672 -2.934705,4.71444 c 0,0 0.358208,-2.00131 0.07596,-2.94039 -0.06242,-0.20769 -0.196403,-0.40737 -0.372589,-0.53382 -0.330589,-0.23726 -0.769191,-0.28398 -1.172019,-0.34158 -0.557771,-0.0797 -1.639179,-0.061 -1.639179,-0.061 l -0.07958,-0.68627 z m 4.696354,0.31213 -1.213882,2.8484 c 3e-6,0 -0.763175,0.16317 -1.13688,0.27389 -0.776314,0.23001 -1.541883,0.4998 -2.290299,0.80873 -0.659607,0.27227 -1.933731,0.91881 -1.933731,0.91881 l 2.845302,-4.73718 z m 20.137787,0.78651 c 0,0 -0.117428,0.0992 0.270269,0.2651 l 2.150771,0.0708 4.971791,1.46192 1.314648,3.05201 -1.953368,3.00241 c 0,0 -3.649163,-2.52129 -5.651336,-3.44992 -1.963285,-0.91059 -6.161897,-2.04536 -6.161897,-2.04536 l 0.11679,-2.22002 z m -7.095691,0.31316 0.978752,0.062 -0.0021,1.78284 -1.005623,-0.28784 z m 15.527734,1.42679 1.617474,0.008 0.733288,1.44436 -1.316715,0.98495 z m 5.518009,1.58956 c 0.207598,5.3e-4 0.414378,0.0196 0.610299,0.0806 0.39688,0.12353 1.072287,0.63613 1.072287,0.63613 l -2.323891,2.1699 -1.118277,-2.60294 c 0,0 0.916773,-0.24052 1.386996,-0.26975 0.122878,-0.008 0.248029,-0.0143 0.372586,-0.0139 z m -2.617927,0.8444 1.116727,2.68975 -0.513662,0.51729 c 0,0 -0.316982,-0.39471 -0.541571,-0.48628 -0.148008,-0.0603 -0.479038,-0.0207 -0.479038,-0.0207 l -0.75551,-1.85467 z m -2.087211,1.71204 0.634069,1.50947 -1.984891,0.98547 -0.220657,-0.34314 z m 8.162809,0.12557 1.478462,4.83847 -0.648539,0.29765 c 0,0 -0.443158,-1.24424 -0.844909,-1.7539 -0.25459,-0.32297 -0.579086,-0.61464 -0.955498,-0.78031 -0.320998,-0.14129 -1.041278,-0.15193 -1.041278,-0.15193 z m 77.408195,3.48248 c 6.31077,0.31719 13.076968,2.92078 17.566369,7.42073 5.298639,5.31109 8.91442,13.25384 8.709546,20.75325 -0.207623,7.60003 -4.051425,15.73562 -9.961666,20.51813 -5.69652,4.60957 -14.116213,6.47258 -21.343918,5.2648 -6.756712,-1.12908 -13.36036,-5.51624 -17.269229,-11.14196 -4.121772,-5.93214 -5.7545,-12.18125 -4.65863,-21.16356 l 17.395838,4.60023 c 1.247749,0.32998 3.839041,0.50333 3.839041,0.50333 0,0 0.209158,0.47593 0.410829,0.62063 0.217855,0.15632 0.777729,0.20568 0.777729,0.20568 0,0 1.17107,2.40936 2.318721,2.79104 0.490032,0.16297 1.019913,-0.18786 1.506368,-0.36122 1.102255,-0.3928 2.515301,-0.54929 3.162081,-1.52445 0.489775,-0.73844 0.569531,-1.88443 0.132291,-2.65514 -0.46886,-0.82644 -2.516642,-1.33893 -2.516642,-1.33893 l -7.224882,-10.757 c 0,0 -1.102815,-1.9009 -1.565278,-2.89595 -0.465881,-1.0024 -1.212847,-3.08611 -1.212847,-3.08611 l 2.288233,-1.05834 c 0,0 0.609992,1.02616 1.12758,1.07849 0.468315,0.0473 0.96307,-0.34245 1.195277,-0.75189 0.26063,-0.45956 0.03617,-1.5844 0.03617,-1.5844 0,0 0.600525,-0.42458 0.808218,-0.71934 0.232934,-0.33058 0.454237,-1.12499 0.454237,-1.12499 l 0.831474,-0.16485 0.03876,0.80925 1.203029,0.007 v -0.87023 l 1.971971,-0.7767 z m -48.8461153,0.60203 c 0,0 -1.5678044,1.96564 -2.3073517,2.98173 -0.978538,1.34444 -2.815331,4.11757 -2.815331,4.11757 l 0.860412,-3.79098 c 0,0 0.106855,-1.04461 0,-1.55029 -0.09813,-0.46438 -0.576191,-1.30225 -0.576191,-1.30225 z m 42.0206903,0.0879 0.07183,2.45928 h 0.715719 c 0,0 0.04569,0.1986 0,0.28008 -0.09813,0.17511 -0.513665,0.31419 -0.513665,0.31419 l -0.787032,0.12145 -0.119888,-1.2728 c 0,0 -0.520292,0.11398 -0.738457,0 -0.207103,-0.10818 -0.326882,-0.35339 -0.400492,-0.57515 -0.110821,-0.33384 -0.03462,-1.05472 -0.03462,-1.05472 z m -101.461505,0.61443 0.606166,0.015 -1.014926,5.30976 z m -3.942911,0.0677 -1.318784,12.14345 -5.802746,-1.52859 c -0.557667,-0.14692 -1.019551,-0.58294 -1.400432,-1.01596 -0.325051,-0.36955 -0.595854,-0.81669 -0.70745,-1.29604 -0.143127,-0.61482 -0.113774,-1.26105 -0.09043,-1.89188 l 0.0987,-2.67374 c 0,0 1.816632,-1.21415 2.600357,-1.65261 1.192411,-0.6671 2.440533,-1.26824 3.752742,-1.64899 0.928727,-0.26948 2.868043,-0.43564 2.868043,-0.43564 z m 9.916189,0.78755 c 0,0 2.646037,0.65132 3.897956,1.17512 1.228751,0.51412 3.507277,1.91513 3.507277,1.91513 l -0.686263,0.75396 c 0,0 -1.302986,-0.30448 -1.686719,0.10801 -0.546333,0.58727 -0.280353,1.66237 0.02016,2.40605 0.07317,0.18108 0.228941,0.33737 0.403593,0.42478 0.22457,0.11239 0.748273,0.0884 0.748273,0.0884 l 0.936377,1.10381 -9.196338,8.83822 c 0,0 0.242139,-1.09665 0.304893,-1.65365 0.202845,-1.80048 0.04952,-3.62761 0.227891,-5.43068 0.323154,-3.26648 1.522905,-9.72912 1.522905,-9.72912 z m -4.775419,1.19786 c 0,0 0.07326,5.86994 -0.108003,8.79688 -0.06979,1.12684 -0.09043,3.34605 -0.09043,3.34605 l -2.008145,-0.47594 z m 89.973837,2.20452 c 0,0 0.971682,2.67583 1.546158,3.97702 0.557626,1.26303 1.149409,2.51534 1.841749,3.70985 0.816459,1.40866 2.716628,4.0597 2.716628,4.0597 l 5.020365,7.20111 -20.419424,-5.16299 c 0,0 1.427136,-5.19354 3.963066,-8.54315 1.504392,-1.98709 5.331458,-5.24154 5.331458,-5.24154 z m -61.52751,0.20826 c 0.541065,0.007 1.241266,0.17414 1.241266,0.17414 0,0 -0.351657,1.61937 -0.417544,2.44275 -0.05555,0.69418 -0.08231,1.40046 0.02016,2.08928 0.09948,0.66873 0.09569,1.46535 0.571543,1.94562 0.53767,0.54265 1.434825,0.56967 2.192631,0.6661 0.886148,0.11276 2.677872,-0.11162 2.677872,-0.11162 l 1.243025,5.8896 -4.056882,0.0497 c -0.279599,-1.81516 -0.529178,-2.27045 -1.174015,-3.9901 -0.722619,-1.92708 -1.786517,-3.71039 -2.772439,-5.51698 -0.500607,-0.9173 -1.594218,-2.69957 -1.594218,-2.69957 0,0 1.089838,-0.78772 1.729611,-0.91468 0.0973,-0.0193 0.214135,-0.026 0.338997,-0.0243 z m -43.884143,0.12298 0.01344,2.38332 0.09405,1.60404 c 0.03119,0.53177 0.515218,1.26885 0.886251,1.65106 0.428615,0.44153 0.895065,0.91905 1.48363,1.09864 l 2.87786,0.87799 3.614766,0.95756 0.08475,1.603 -11.070124,-3.252 -1.222002,-0.89253 -0.887431,-2.11194 c 0,0 1.398545,-1.67596 2.219505,-2.43447 0.576337,-0.5325 1.905309,-1.48466 1.905309,-1.48467 z m 29.667441,4.67465 0.03204,0.92346 -7.835699,8.09615 -1.377693,0.11369 z m -35.086465,0.69331 0.918263,0.71419 c 0.341117,0.2653 0.417838,0.76858 0.64415,1.00114 0.452268,0.46478 1.107067,0.68416 1.701186,0.94413 0.706628,0.3092 2.197282,0.72399 2.197282,0.72399 l 9.647992,5.43429 v 0.64958 c 0,0 -0.622385,0.11052 -0.808736,0.19482 -0.282342,0.12772 -0.787033,0.4749 -0.787033,0.4749 l -14.585674,-8.44083 z m 39.569393,0.31387 c 0,0 1.062238,1.45129 1.520322,2.22364 0.449069,0.75715 0.885999,1.53032 1.198374,2.35334 0.278739,0.73438 0.485717,2.6696 0.485717,2.6696 l -12.929917,0.5979 7.395932,-7.62331 c 0,0 0.775152,0.0125 1.160134,-0.0238 0.393692,-0.0371 1.169438,-0.1974 1.169438,-0.1974 z m -41.050723,2.34043 13.921631,8.34832 c 0,0 -1.103185,1.84528 -1.309997,2.88665 -0.201041,1.01232 -0.178014,2.03219 -0.01603,3.05149 0.139912,0.88034 0.397965,1.80914 0.797367,2.60604 0.322969,0.6444 0.797264,1.22662 1.348237,1.69137 0.496372,0.41869 1.102498,0.70118 1.706357,0.94 0.862359,0.34106 2.695442,0.68729 2.695442,0.68729 l 8.072893,1.97508 c 0,0 -0.02458,0.55629 0.02894,0.82682 0.05775,0.29198 0.311092,0.83716 0.311092,0.83716 l 4.080369,-0.41186 12.386842,0.89038 c -0.782905,2.10182 -1.82698,4.29872 -3.30109,6.06733 -2.394119,2.87241 -5.377238,5.38604 -8.726601,7.04867 -2.776368,1.3782 -5.928757,2.17312 -9.027872,2.22932 -3.441618,0.0623 -6.945524,-0.75279 -10.108427,-2.11098 -3.236664,-1.38986 -6.252892,-3.46922 -8.68939,-6.01307 -2.461792,-2.57026 -4.396039,-5.70127 -5.692161,-9.03356 -1.283216,-3.29911 -1.880243,-6.89366 -1.903243,-10.43347 -0.01503,-2.31327 0.392602,-4.64237 1.05265,-6.85953 0.54565,-1.83288 2.372982,-5.22345 2.372982,-5.22345 z m 11.60136,2.26756 4.330483,1.30844 0.22066,1.12087 z m 8.267194,0.0465 2.31562,0.5917 -0.0078,3.29592 -2.614311,0.0191 z m 25.993246,8.36229 0.02273,1.65106 -14.612546,-0.57671 c 0,0 1.327245,-0.4436 2.011246,-0.58291 0.923229,-0.18803 1.864482,-0.32315 2.806547,-0.33797 z m -14.717964,4.37234 14.922603,1.67793 -0.161747,1.70636 -11.688175,-1.48053 c -0.661744,-0.0839 -1.330392,-0.29303 -1.890843,-0.65474 -0.481684,-0.31087 -1.18184,-1.24902 -1.181838,-1.24902 z m 27.439168,11.07468 0.120329,3.9846 c 0,0 0.929863,1.76241 1.714283,2.31724 0.684615,0.48423 1.583939,0.56797 2.405261,0.7371 0.964719,0.19866 1.952456,0.32491 2.93741,0.32088 0.758941,-0.003 1.532503,-0.0539 2.26128,-0.26578 1.051882,-0.3058 2.96079,-1.426 2.96079,-1.426 0,0 2.881747,0.57415 4.33772,0.76208 2.086864,0.26937 5.6908273,0.80849 6.2908943,0.52222 1.2739185,-0.60773 1.5883282,-2.20676 1.8106655,-3.60059 0.10845,-0.67989 -0.056028,-1.34907 -0.5230363,-1.85495 -1.5014734,-1.62645 -3.9149893,-0.55614 -5.8262095,-1.67287 -0.630246,-0.36824 -0.757399,-0.97393 -1.383234,-1.34962 -0.522832,-0.31386 -1.296291,-1.04008 -1.296291,-1.04008 2.329968,-2.46561 2.749505,-4.45835 2.789433,-7.46648 0.01606,-1.2107 -0.259085,-3.18304 -0.918033,-4.65389 -1.001763,-2.23608 -2.344081,-3.69982 -2.344081,-3.69982 0,0 8.9092455,-11.45134 13.76977883,-16.84959 3.21100177,-3.56623 6.54590797,-7.02712 10.02547517,-10.33184 3.04814,-2.89497 9.491178,-8.30455 9.491178,-8.30455 0,0 0.386424,0.71411 0.358336,1.49405 -0.01897,0.52701 -0.599392,0.82704 -0.323326,1.10096 0.294907,0.29261 1.29127,0.32204 1.29127,0.32204 l 0.04011,2.84985 -0.781243,0.0836 0.09184,1.1899 1.057386,-0.13282 0.413676,2.85043 c 0,0 -3.355253,2.148 -4.754163,3.54456 -3.265466,3.25997 -6.207056,6.96774 -8.2926897,11.08366 -1.9293019,3.80741 -3.7312599,12.24928 -3.7312599,12.24928 0,0 -1.7965261,1.64716 -2.4920707,2.63637 -0.7927261,1.12742 -1.866564,3.68936 -1.866564,3.68936 l 6.7328467,-5.32712 c 0,0 -0.1447615,5.87647 0.5214964,8.70645 1.2855204,5.46035 2.9858412,11.18796 6.5939092,15.48329 4.858924,5.78444 11.695355,10.43973 19.005361,12.34572 6.995282,1.82393 14.941915,1.28918 21.640289,-1.42973 6.225025,-2.52678 13.359036,-9.43514 15.347548,-13.06417 4.54232,-8.64402 5.48193,-19.70191 2.98473,-29.14203 -1.77048,-6.6929 -6.487626,-12.74046 -12.055523,-16.91242 -5.047966,-3.56941 -8.885532,-5.51588 -19.812539,-6.8877 l 0.414989,-2.36249 c 0,0 -4.156599,-0.10655 -6.209414,0.16368 -1.799966,0.23695 -5.296249,1.27041 -5.296249,1.27041 l -0.255008,-0.85872 c 0,0 3.437488,-4.23854 4.533416,-6.70334 0.850958,-1.91385 1.32235,-4.01384 1.506574,-6.10022 0.214421,-2.42836 0.275646,-4.98049 -0.482229,-7.2975 -0.621975,-1.90152 -1.83805,-3.61842 -3.219945,-5.06514 -0.854292,-0.89437 -1.887826,-1.67417 -3.036808,-2.13194 -1.090933,-0.43464 -3.485409,-0.51316 -3.485409,-0.51316 0,0 -1.574234,-1.18866 -2.500125,-1.46208 -1.057746,-0.31236 -3.305344,-0.14922 -3.305344,-0.14922 0,0 -0.275291,-1.19293 -0.317548,-1.80109 -0.03814,-0.54894 0.296193,-1.1532 0.05903,-1.64973 -0.290185,-0.60753 -1.261335,-0.63981 -1.615475,-1.21243 -0.352007,-0.56917 -0.03697,-1.38941 -0.360995,-1.97496 -0.325247,-0.58776 -1.487196,-1.35996 -1.487196,-1.35996 l -1.851049,0.0819 c 0,0 -0.511789,-1.48057 -1.257339,-1.80646 -1.250286,-0.54651 -3.7517974,0.77742 -3.7517974,0.77742 0,0 -0.9031393,-0.002 -1.3363257,0.10728 -0.7794122,0.19748 -2.2062122,0.97518 -2.2062122,0.97518 0,0 -4.63343095,0.681 -6.5943427,-0.31788 -0.3281389,-0.16715 -0.3694774,-0.68329 -0.6918325,-0.86134 -0.5077036,-0.28043 -1.2122679,0.0644 -1.7284805,-0.2 -0.6700891,-0.34327 -0.8183854,-1.40029 -1.5216029,-1.66924 -0.446405,-0.17073 -1.0123249,0.38316 -1.426501,0.14466 -0.3426275,-0.1973 -0.2588683,-0.75909 -0.4888336,-1.08071 -0.8148611,-1.13962 -3.0634595,-2.87746 -3.0634595,-2.87746 l -2.191885,-3.44144 c 0,0 -1.481024,-4.8068 -2.233896,-7.20635 -0.243887,-0.77732 -0.739661,-2.32944 -0.739661,-2.32944 l 0.875168,-0.62243 -0.533847,-1.22001 c 0,0 1.676937,0.40046 2.490864,0.2207 0.582009,-0.12854 1.280916,-0.36092 1.54899,-0.89327 0.256511,-0.50939 -0.373275,-1.15772 -0.195829,-1.69974 0.05988,-0.1829 0.311555,-0.24882 0.392467,-0.42343 0.156919,-0.33863 0.299585,-0.77686 0.134469,-1.11157 -0.17096,-0.34656 -0.997992,-0.58992 -0.997992,-0.58992 0,0 0.965086,-0.051 1.397611,-0.24197 0.2247687,-0.0992 0.582271,-0.45198 0.582271,-0.45198 l 0.034629,-1.18186 0.7247917,-0.35046 c 0,0 0.389419,-0.79302 0.3263,-1.20402 -0.1453012,-0.94614 -1.5482547,-2.41858 -1.5482547,-2.41858 0,0 0.353108,-0.59524 0.4132848,-0.92869 0.077131,-0.42739 -0.3102822,-0.93206 -0.080219,-1.30042 0.086461,-0.13843 0.3640693,-0.0501 0.452366,-0.18733 0.6615536,-1.0284 0.2341933,-2.59486 -0.128016,-3.66618 -0.2409533,-0.71268 -0.5187367,-2.19651 -0.5187367,-2.19651 0,0 1.1703711,-0.80124 1.7010062,-1.26907 0.532302,-0.4693 1.2215918,-0.87123 1.4768353,-1.53337 0.1310799,-0.34004 0.1836368,-0.80019 -0.033628,-1.09277 -0.4255399,-0.57305 -1.3320633,-0.53165 -2.0298463,-0.68187 -0.8224519,-0.17706 -2.5112743,-0.25202 -2.5112743,-0.25202 0,0 -2.574099,-1.6196 -3.990107,-2.14343 -1.649648,-0.61026 -3.396083,-1.08589 -5.154451,-1.12933 -1.956051,-0.0483 -3.985061,0.21374 -5.788975,0.97161 -1.72684,0.7255 -3.360517,1.8543 -4.54312,3.3068 -1.135269,1.39437 -1.735498,3.18391 -2.224392,4.91425 -0.178065,0.63021 -0.253333,1.29431 -0.246274,1.94916 0.01511,1.40139 0.161531,2.83346 0.616828,4.15891 0.455885,1.32717 2.071701,3.66482 2.071701,3.66482 l 1.881349,0.21676 0.284022,1.54984 -0.156906,2.21467 c 0,0 -0.656584,-0.0539 -0.837126,0.16591 -0.216003,0.26301 0,1.02103 0,1.02103 0,0 -1.387744,-0.0205 -2.012267,0.23658 -0.905391,0.37273 -1.60148,1.13787 -2.31318,1.81029 -0.533657,0.5042 -1.047232,1.04327 -1.453603,1.65472 -1.531636,2.30458 -2.323425,5.02634 -3.628466,7.46639 -0.807752,1.51026 -1.835283,2.89947 -2.597037,4.43344 -0.781603,1.57394 -1.388623,3.22985 -2.013759,4.87223 -0.222891,0.58558 -0.326774,1.22058 -0.61881,1.77493 -0.535837,1.01713 -1.529408,1.74997 -2.043798,2.77811 -0.554763,1.10884 -0.929598,2.32936 -1.076166,3.56054 -0.124249,1.04369 0.645027,2.20646 0.178178,3.14815 -0.227626,0.45915 -0.99082,0.43324 -1.274292,0.86018 -0.550883,0.82969 -0.343463,1.96349 -0.579577,2.93102 -0.201758,0.82675 -0.613214,1.60611 -0.714124,2.45112 -0.130376,1.09174 0.150966,3.29502 0.150966,3.29502 l 0.529915,1.86027 c 0,0 -0.04678,2.22979 0.14037,3.32229 0.126415,0.73797 0.657526,2.14776 0.657526,2.14776 0,0 -1.658903,-0.0277 -2.41033,0.27069 -0.492839,0.19569 -0.99459,0.50337 -1.272069,0.95524 -0.4181,0.68087 -0.347199,1.48057 -0.170741,2.25984 0.193191,0.85316 0.750218,1.48491 1.454243,2.00409 1.501627,1.10737 5.137822,1.99361 5.137822,1.99361 l 0.909957,1.32078 2.182927,0.95318 0.180623,1.80692 1.759034,0.55134 0.174115,1.02843 2.120595,-0.16393 0.705919,2.38713 c 0,0 -1.159822,-0.57488 -1.698619,-0.66699 -0.9261,-0.15831 -2.809526,0.22598 -2.809526,0.22598 l -0.758904,-1.47838 -5.247341,-1.69197 -1.500659,-1.18784 h -1.118351 l 0.02434,-1.01773 c 0,0 -1.165015,-0.48719 -1.782402,-0.58914 -2.288858,-0.37795 -6.959335,-0.0562 -6.959335,-0.0562 l -24.428921,0.85792 c 0,0 -0.449601,-0.45926 -0.74422,-0.55191 -0.887878,-0.27922 -1.866879,-0.0299 -2.791087,0.0802 -0.751676,0.0896 -1.54242,0.13617 -2.221809,0.47005 -0.125196,0.0615 -0.262814,0.14341 -0.31871,0.27122 -0.169148,0.38676 0.05212,1.3849 0.05212,1.3849 l 3.565816,-0.0747 -0.025,0.66589 c 0,0 -1.216954,0.0687 -1.566506,0.27717 -0.405254,0.24164 -0.529608,1.04962 -0.529608,1.04962 l 0.210558,5.19899 2.227059,-0.13763 0.417827,0.95269 c 0,0 -3.419375,2.27023 -4.902811,3.67374 -1.626074,1.53847 -4.318143,5.14321 -4.318143,5.14321 0,0 -0.855321,-0.25553 -1.24855,-0.11402 -0.230709,0.083 -0.445995,0.28519 -0.521933,0.51833 -0.09775,0.3001 0.150008,0.93488 0.150008,0.93488 0,0 -0.931074,0.5119 -1.037445,0.97421 -0.07837,0.34062 0.373806,0.97966 0.373806,0.97966 l -1.113517,2.32209 c 0,0 -2.223006,0.69873 -3.248886,1.23781 -1.30213,0.68425 -3.73496,1.03751 -3.63304,2.50494 0.027,0.38879 1.04507,0.52424 1.04507,0.52424 l 7.06202,-1.94025 c 0,0 -2.080178,8.56552 -1.70688,12.8804 0.543142,6.27813 2.460566,12.61004 5.665197,18.03592 2.423837,4.10389 5.832464,7.8181 9.877978,10.33816 4.083166,2.54352 8.952143,4.22293 13.761095,4.34831 10.018022,0.26119 14.213928,-1.0215 19.069648,-4.10763 2.734141,-1.73773 5.562931,-3.85729 7.631626,-6.47442 2.265807,-2.8665 3.455413,-4.82294 4.969457,-9.7704 z" />
  </g>
</svg>
